<svg xmlns="http://www.w3.org/2000/svg" viewBox="0 0 256 256"><title>setting_navi_icon_select</title><circle cx="128.76" cy="128.38" r="50.57" style="fill:none;stroke:#fff;stroke-miterlimit:10;stroke-width:14px"/><path d="M148.81,39.3c0-7.2-9-13-20.05-13s-20.06,5.84-20.06,13" style="fill:none;stroke:#fff;stroke-miterlimit:10;stroke-width:14px"/><path d="M207.66,80.57c5.09-5.09,2.87-15.57-5-23.4s-18.31-10.05-23.4-5" style="fill:none;stroke:#fff;stroke-miterlimit:10;stroke-width:14px"/><path d="M148.39,31.23c-2.76,6.65,3.3,15.48,13.53,19.72s20.77,2.28,23.52-4.37" style="fill:none;stroke:#fff;stroke-miterlimit:10;stroke-width:14px"/><path d="M212.05,74.51c-6.65,2.75-8.61,13.28-4.37,23.52s13.07,16.29,19.72,13.53" style="fill:none;stroke:#fff;stroke-miterlimit:10;stroke-width:14px"/><path d="M216,149.76c7.2,0,13-9,13-20s-5.84-20.05-13-20.05" style="fill:none;stroke:#fff;stroke-miterlimit:10;stroke-width:14px"/><path d="M178.06,207.23c5.09,5.09,15.57,2.87,23.4-5s10-18.31,5-23.4" style="fill:none;stroke:#fff;stroke-miterlimit:10;stroke-width:14px"/><path d="M227.4,148c-6.65-2.75-15.48,3.31-19.72,13.54s-2.28,20.76,4.37,23.52" style="fill:none;stroke:#fff;stroke-miterlimit:10;stroke-width:14px"/><path d="M184.12,211.62c-2.75-6.65-13.28-8.61-23.51-4.37s-16.3,13.07-13.54,19.72" style="fill:none;stroke:#fff;stroke-miterlimit:10;stroke-width:14px"/><path d="M109.13,216.7c0,7.2,9,13,20.05,13s20.06-5.84,20.06-13" style="fill:none;stroke:#fff;stroke-miterlimit:10;stroke-width:14px"/><path d="M50.28,175.43c-5.09,5.09-2.87,15.57,5,23.4s18.31,10,23.4,5" style="fill:none;stroke:#fff;stroke-miterlimit:10;stroke-width:14px"/><path d="M109.55,224.77c2.76-6.65-3.3-15.48-13.54-19.72s-20.76-2.28-23.51,4.37" style="fill:none;stroke:#fff;stroke-miterlimit:10;stroke-width:14px"/><path d="M45.89,181.49c6.65-2.75,8.61-13.28,4.37-23.52s-13.07-16.29-19.72-13.53" style="fill:none;stroke:#fff;stroke-miterlimit:10;stroke-width:14px"/><path d="M40,106.24c-7.2,0-13,9-13,20.05s5.84,20,13,20" style="fill:none;stroke:#fff;stroke-miterlimit:10;stroke-width:14px"/><path d="M79.88,48.77c-5.09-5.09-15.57-2.87-23.4,5s-10.06,18.31-5,23.4" style="fill:none;stroke:#fff;stroke-miterlimit:10;stroke-width:14px"/><path d="M30.54,108.05c6.65,2.75,15.48-3.31,19.72-13.54S52.54,73.75,45.89,71" style="fill:none;stroke:#fff;stroke-miterlimit:10;stroke-width:14px"/><path d="M73.82,44.38C76.57,51,87.1,53,97.33,48.75S113.63,35.68,110.87,29" style="fill:none;stroke:#fff;stroke-miterlimit:10;stroke-width:14px"/><ellipse cx="75.87" cy="71.42" rx="23.38" ry="21.95" style="fill:#fff"/><ellipse cx="129.59" cy="53.19" rx="23.38" ry="21.95" style="fill:#fff"/><ellipse cx="182.06" cy="75.14" rx="23.38" ry="21.95" style="fill:#fff"/><ellipse cx="202.7" cy="129.71" rx="23.38" ry="21.95" style="fill:#fff"/><ellipse cx="184.12" cy="183.06" rx="23.38" ry="21.95" style="fill:#fff"/><ellipse cx="129.59" cy="203.57" rx="23.38" ry="21.95" style="fill:#fff"/><ellipse cx="75.87" cy="181.63" rx="23.38" ry="21.95" style="fill:#fff"/><ellipse cx="53.92" cy="126.29" rx="23.38" ry="21.95" style="fill:#fff"/><ellipse cx="67.98" cy="99.08" rx="19.71" ry="18.51" style="fill:#fff"/><ellipse cx="105.59" cy="66.83" rx="19.71" ry="18.51" style="fill:#fff"/><ellipse cx="157.09" cy="69.5" rx="19.71" ry="18.51" style="fill:#fff"/><ellipse cx="190.68" cy="103.84" rx="19.71" ry="18.51" style="fill:#fff"/><ellipse cx="190.68" cy="154.59" rx="19.71" ry="18.51" style="fill:#fff"/><ellipse cx="157.09" cy="190.98" rx="19.71" ry="18.51" style="fill:#fff"/><ellipse cx="102.84" cy="190.98" rx="19.71" ry="18.51" style="fill:#fff"/><ellipse cx="66.17" cy="151.66" rx="19.71" ry="18.51" style="fill:#fff"/></svg>